<svg version="1.1" xmlns="http://www.w3.org/2000/svg" viewBox="0 0 532.820531027658 350.04478454589844" width="532.820531027658" height="350.04478454589844" filter="invert(93%) hue-rotate(180deg)">
  <!-- svg-source:excalidraw -->
  
  <defs>
    <style class="style-fonts">
      @font-face {
        font-family: "Virgil";
        src: url("https://excalidraw.com/Virgil.woff2");
      }
      @font-face {
        font-family: "Cascadia";
        src: url("https://excalidraw.com/Cascadia.woff2");
      }
    </style>
    
  </defs>
  <g stroke-linecap="round"><g transform="translate(184.77849578857422 18.086624145507812) rotate(0 0.6224365234375 142.2941131591797)"><path d="M0 0 C0.21 47.43, 1.04 237.16, 1.24 284.59 M0 0 C0.21 47.43, 1.04 237.16, 1.24 284.59" stroke="#000000" stroke-width="1" fill="none"/></g></g><mask/><g stroke-linecap="round"><g transform="translate(23.88249969482422 166.95021057128906) rotate(0 187.5894775390625 -0.0338592529296875)"><path d="M0 0 C62.53 -0.01, 312.65 -0.06, 375.18 -0.07 M0 0 C62.53 -0.01, 312.65 -0.06, 375.18 -0.07" stroke="#000000" stroke-width="1" fill="none"/></g></g><mask/><g stroke-linecap="round"><g transform="translate(76.56511688232422 340.04478454589844) rotate(0 99.652587890625 -159.94393920898438)"><path d="M0 0 C33.22 -53.31, 166.09 -266.57, 199.31 -319.89 M0 0 C33.22 -53.31, 166.09 -266.57, 199.31 -319.89" stroke="#c92a2a" stroke-width="1" fill="none"/></g></g><mask/><g transform="translate(244.36492156982422 74.39836120605469) rotate(0 -2.4830322265625 -1.0623016357421875)" stroke="none"><path fill="#000000" d="M 0.68,2.38 Q 0.68,2.38 0.29,2.52 -0.09,2.66 0.68,1.67 1.47,0.68 1.48,0.71 1.49,0.74 1.47,1.06 1.45,1.38 1.36,1.68 1.26,1.99 1.09,2.26 0.93,2.53 0.70,2.76 0.47,2.98 0.20,3.15 -0.06,3.31 -0.37,3.41 -0.67,3.50 -0.99,3.52 -1.31,3.54 -1.63,3.48 -1.94,3.42 -2.23,3.29 -2.52,3.16 -2.77,2.96 -3.03,2.76 -3.22,2.51 -3.42,2.26 -3.55,1.96 -3.68,1.67 -3.74,1.36 -3.79,1.04 -3.28,-0.10 -2.77,-1.25 -0.94,-1.17 0.87,-1.08 1.42,-1.12 1.97,-1.16 2.07,-0.78 2.18,-0.41 2.19,-0.03 2.20,0.35 2.12,0.73 2.04,1.11 1.87,1.46 1.70,1.80 1.46,2.10 1.21,2.40 0.90,2.63 0.59,2.86 0.23,3.01 -0.11,3.16 -0.50,3.22 -0.88,3.28 -1.26,3.24 -1.65,3.21 -2.01,3.08 -2.38,2.96 -2.70,2.75 -3.03,2.54 -3.30,2.26 -3.56,1.98 -3.75,1.64 -3.94,1.31 -3.80,-0.23 -3.66,-1.78 -2.59,-1.55 -1.53,-1.33 -2.67,-0.91 -3.81,-0.49 -3.71,0.51 -3.61,1.52 -3.77,1.11 -3.93,0.70 -3.98,0.27 -4.03,-0.16 -3.98,-0.59 -3.93,-1.03 -3.78,-1.44 -3.62,-1.85 -3.37,-2.22 -3.13,-2.58 -2.80,-2.87 -2.47,-3.16 -2.08,-3.37 -1.69,-3.57 -1.27,-3.68 -0.84,-3.79 -0.40,-3.79 0.03,-3.79 0.45,-3.69 0.88,-3.58 1.27,-3.38 1.66,-3.18 1.99,-2.89 2.32,-2.60 2.57,-2.24 2.82,-1.88 2.44,-2.36 2.07,-2.85 2.43,-2.39 2.79,-1.92 2.99,-1.37 3.19,-0.81 3.20,-0.22 3.20,0.36 3.02,0.92 2.84,1.48 2.49,1.95 2.14,2.43 1.66,2.77 1.18,3.10 0.61,3.27 0.05,3.44 -0.53,3.41 -1.12,3.39 -1.67,3.18 -2.22,2.97 -2.68,2.59 -3.13,2.22 -3.44,1.72 -3.76,1.22 -3.89,0.64 -4.03,0.07 -3.97,-0.51 -3.91,-1.10 -3.67,-1.63 -3.43,-2.17 -3.04,-2.61 -2.64,-3.04 -2.12,-3.32 -1.60,-3.61 -1.02,-3.71 -0.44,-3.81 0.13,-3.73 0.71,-3.64 1.24,-3.37 1.76,-3.10 2.18,-2.68 2.59,-2.26 2.84,-1.73 3.10,-1.20 3.17,-0.61 3.24,-0.03 3.12,0.54 3.00,1.12 2.71,1.63 2.41,2.14 1.97,2.53 1.52,2.91 0.98,3.14 0.43,3.37 -0.14,3.41 -0.73,3.45 -1.30,3.30 -1.87,3.15 -2.74,2.34 -3.61,1.52 -3.77,1.11 -3.92,0.70 -3.98,0.27 -4.03,-0.16 -3.98,-0.59 -3.93,-1.03 -3.78,-1.44 -3.62,-1.85 -3.37,-2.22 -3.13,-2.58 -2.80,-2.87 -2.47,-3.16 -2.08,-3.37 -1.69,-3.57 -1.27,-3.68 -0.84,-3.79 -0.40,-3.79 0.03,-3.79 0.45,-3.69 0.88,-3.58 1.27,-3.38 1.66,-3.18 1.99,-2.89 2.32,-2.60 2.57,-2.24 2.82,-1.88 2.24,-2.91 1.67,-3.95 2.04,-2.28 2.41,-0.61 2.31,0.58 2.20,1.78 1.57,2.93 0.93,4.08 -0.45,4.70 -1.84,5.32 -3.20,4.98 -4.56,4.65 -5.85,3.36 -7.14,2.06 -7.67,0.49 -8.19,-1.07 -8.13,-2.24 -8.08,-3.42 -6.93,-4.91 -5.79,-6.41 -3.92,-6.95 -2.05,-7.50 -0.53,-6.85 0.98,-6.20 1.59,-5.33 2.21,-4.46 2.09,-2.81 1.97,-1.16 2.07,-0.78 2.18,-0.41 2.19,-0.03 2.20,0.35 2.12,0.73 2.04,1.11 1.87,1.45 1.70,1.80 1.46,2.10 1.21,2.40 0.90,2.63 0.59,2.86 0.23,3.01 -0.11,3.16 -0.50,3.22 -0.88,3.28 -1.26,3.24 -1.65,3.21 -2.01,3.08 -2.38,2.96 -2.70,2.75 -3.03,2.54 -3.30,2.26 -3.56,1.98 -3.75,1.64 -3.94,1.31 -4.02,1.18 -4.10,1.05 -4.24,-0.35 -4.37,-1.76 -3.77,-3.10 -3.17,-4.44 -1.76,-5.00 -0.35,-5.56 0.63,-5.05 1.62,-4.55 2.05,-3.07 2.49,-1.60 1.99,-0.43 1.49,0.74 1.47,1.06 1.45,1.38 1.36,1.68 1.26,1.99 1.09,2.26 0.93,2.53 0.70,2.76 0.47,2.98 0.20,3.15 -0.06,3.31 -0.37,3.41 -0.67,3.50 -0.99,3.52 -1.31,3.54 -1.63,3.48 -1.94,3.42 -2.23,3.29 -2.52,3.16 -2.77,2.96 -3.03,2.76 -3.22,2.51 -3.42,2.26 -3.55,1.96 -3.68,1.67 -3.74,1.36 -3.79,1.04 -3.79,1.05 -3.79,1.05 -2.76,-0.54 -1.74,-2.13 -1.21,-2.26 -0.68,-2.38 -0.38,-2.42 -0.09,-2.47 0.20,-2.45 0.50,-2.42 0.78,-2.32 1.07,-2.23 1.32,-2.07 1.57,-1.91 1.77,-1.69 1.98,-1.48 2.13,-1.22 2.28,-0.96 2.36,-0.67 2.44,-0.38 2.45,-0.08 2.46,0.20 2.40,0.50 2.34,0.79 2.21,1.06 2.08,1.33 1.89,1.56 1.70,1.79 1.47,1.97 1.23,2.15 0.95,2.26 0.68,2.38 0.68,2.38 L 0.68,2.38 Z"/></g><g transform="translate(108.16936492919922 291.26914978027344) rotate(0 -2.3284912109375 2.09783935546875)" stroke="none"><path fill="#000000" d="M 2.40,1.01 Q 2.40,1.01 2.12,1.80 1.83,2.58 2.41,3.51 3.00,4.44 3.15,4.76 3.30,5.09 3.37,5.43 3.44,5.78 3.42,6.14 3.41,6.50 3.30,6.84 3.20,7.18 3.02,7.48 2.84,7.79 2.59,8.05 2.34,8.30 2.04,8.49 1.74,8.68 1.40,8.79 1.06,8.90 0.71,8.92 0.35,8.95 0.00,8.89 -0.34,8.83 -0.67,8.69 -0.99,8.55 -1.28,8.33 -1.56,8.11 -1.78,7.84 -2.00,7.56 -2.17,6.20 -2.34,4.83 -2.36,3.71 -2.37,2.59 -2.63,1.66 -2.88,0.72 -2.95,0.35 -3.02,-0.02 -2.99,-0.40 -2.97,-0.79 -2.85,-1.15 -2.73,-1.52 -2.53,-1.84 -2.33,-2.17 -2.06,-2.44 -1.79,-2.71 -1.46,-2.91 -1.13,-3.10 -0.76,-3.22 -0.40,-3.33 -0.01,-3.35 0.36,-3.37 0.74,-3.30 1.11,-3.23 1.46,-3.07 1.81,-2.91 2.11,-2.67 2.41,-2.43 2.65,-2.13 2.88,-1.83 3.04,-1.48 3.19,-1.13 3.39,-0.14 3.58,0.84 3.60,1.23 3.61,1.62 3.54,2.01 3.46,2.39 3.29,2.75 3.13,3.10 2.88,3.40 2.63,3.71 2.32,3.94 2.01,4.18 1.65,4.33 1.29,4.49 0.91,4.55 0.52,4.62 0.13,4.59 -0.25,4.56 -0.62,4.43 -0.99,4.31 -1.33,4.10 -1.66,3.90 -1.93,3.62 -2.20,3.33 -2.40,3.00 -2.59,2.66 -2.70,2.28 -2.82,1.91 -2.34,0.69 -1.87,-0.52 -1.24,-2.05 -0.62,-3.57 -0.05,-3.48 0.51,-3.38 1.02,-3.10 1.52,-2.82 1.92,-2.40 2.31,-1.98 2.55,-1.45 2.79,-0.92 2.84,-0.35 2.90,0.22 2.77,0.78 2.64,1.35 2.33,1.84 2.03,2.33 1.59,2.70 1.14,3.07 0.60,3.28 0.06,3.49 -0.50,3.51 -1.08,3.54 -1.64,3.38 -2.19,3.21 -2.67,2.89 -3.14,2.56 -3.49,2.09 -3.83,1.63 -4.01,1.08 -4.19,0.53 -4.18,-0.04 -4.18,-0.62 -3.99,-1.16 -3.80,-1.71 -3.44,-2.17 -3.09,-2.62 -2.61,-2.94 -2.12,-3.26 -1.56,-3.41 -1.01,-3.56 -0.43,-3.52 0.14,-3.48 0.67,-3.26 1.21,-3.04 1.64,-2.66 2.08,-2.29 2.37,-1.79 2.67,-1.29 2.78,-0.72 2.90,-0.16 2.83,0.41 2.76,0.98 2.52,1.50 2.27,2.02 1.87,2.44 1.46,2.86 0.95,3.12 0.44,3.39 -0.12,3.47 -0.70,3.56 -0.70,3.56 -0.69,3.56 -2.25,4.39 -3.81,5.23 -4.88,4.99 -5.95,4.76 -6.98,3.81 -8.01,2.86 -8.38,1.22 -8.75,-0.42 -8.24,-1.73 -7.73,-3.03 -6.62,-3.88 -5.51,-4.73 -3.68,-5.07 -1.85,-5.41 -0.37,-5.00 1.10,-4.60 2.14,-3.20 3.19,-1.80 3.38,-0.47 3.58,0.84 3.60,1.23 3.61,1.62 3.54,2.01 3.46,2.39 3.29,2.75 3.13,3.10 2.88,3.40 2.63,3.71 2.32,3.94 2.01,4.18 1.65,4.33 1.29,4.49 0.91,4.55 0.52,4.62 0.13,4.59 -0.25,4.56 -0.62,4.44 -0.99,4.31 -1.33,4.10 -1.66,3.90 -1.93,3.62 -2.20,3.33 -2.40,3.00 -2.59,2.66 -2.70,2.28 -2.81,1.91 -2.85,1.32 -2.88,0.72 -2.95,0.35 -3.02,-0.02 -2.99,-0.40 -2.97,-0.79 -2.85,-1.15 -2.73,-1.52 -2.53,-1.84 -2.33,-2.17 -2.06,-2.44 -1.79,-2.71 -1.46,-2.91 -1.13,-3.10 -0.76,-3.22 -0.40,-3.33 -0.01,-3.35 0.36,-3.37 0.74,-3.30 1.11,-3.23 1.46,-3.07 1.81,-2.91 2.11,-2.67 2.41,-2.43 2.65,-2.13 2.88,-1.83 3.04,-1.48 3.19,-1.13 3.11,-1.29 3.03,-1.45 3.40,-0.05 3.77,1.35 3.38,2.90 3.00,4.44 3.15,4.76 3.30,5.09 3.37,5.43 3.44,5.78 3.42,6.14 3.41,6.49 3.30,6.84 3.20,7.18 3.02,7.48 2.84,7.79 2.59,8.05 2.34,8.30 2.04,8.49 1.74,8.68 1.40,8.79 1.06,8.90 0.71,8.92 0.35,8.95 0.00,8.89 -0.34,8.83 -0.67,8.69 -0.99,8.55 -1.27,8.33 -1.56,8.11 -1.78,7.84 -2.00,7.56 -1.87,7.70 -1.74,7.85 -2.40,6.76 -3.06,5.67 -3.35,4.30 -3.64,2.94 -3.39,1.73 -3.14,0.52 -2.77,-0.24 -2.40,-1.01 -2.25,-1.29 -2.09,-1.56 -1.87,-1.79 -1.66,-2.02 -1.39,-2.19 -1.12,-2.36 -0.82,-2.46 -0.53,-2.56 -0.21,-2.58 0.09,-2.61 0.41,-2.56 0.72,-2.51 1.01,-2.39 1.30,-2.26 1.55,-2.08 1.80,-1.89 2.00,-1.64 2.20,-1.40 2.34,-1.11 2.47,-0.83 2.54,-0.52 2.60,-0.21 2.59,0.09 2.58,0.41 2.49,0.71 2.40,1.01 2.40,1.01 L 2.40,1.01 Z"/></g><g transform="translate(103.24773406982422 291.94297790527344) rotate(0 2.494140625 3.637115478515625)" stroke="none"><path fill="#000000" d="M 2.54,0.32 Q 2.54,0.32 2.44,1.36 2.34,2.40 3.25,3.41 4.15,4.42 3.16,5.02 2.16,5.63 1.27,4.92 0.38,4.21 0.09,3.85 -0.19,3.48 -0.35,3.05 -0.50,2.61 -0.52,2.15 -0.53,1.68 -0.39,1.24 -0.25,0.80 0.01,0.42 0.28,0.04 0.66,-0.22 1.04,-0.49 1.48,-0.62 1.92,-0.76 2.39,-0.74 2.85,-0.73 3.29,-0.57 3.72,-0.41 4.08,-0.11 4.44,0.17 4.69,0.56 4.94,0.95 5.05,1.40 5.16,1.85 5.12,2.32 5.09,2.78 4.90,3.20 4.72,3.63 4.41,3.97 4.09,4.32 3.69,4.55 3.29,4.77 2.83,4.86 2.37,4.95 1.91,4.88 1.45,4.82 1.04,4.61 0.62,4.40 0.30,4.07 -0.02,3.74 -0.23,3.33 -0.43,2.91 -0.49,2.45 -0.55,1.99 -0.46,1.54 -0.38,1.08 -0.15,0.68 0.07,0.27 0.42,-0.02 0.77,-0.33 1.19,-0.52 1.62,-0.70 2.08,-0.73 2.55,-0.77 3.00,-0.66 3.45,-0.54 3.84,-0.29 4.23,-0.04 4.23,-0.04 4.23,-0.04 6.29,2.02 8.36,4.09 8.47,5.49 8.58,6.89 7.49,8.39 6.40,9.90 5.33,10.12 4.25,10.34 3.12,10.17 2.00,10.00 1.02,9.44 0.04,8.88 -0.87,8.06 -1.78,7.23 -2.41,5.81 -3.04,4.38 -2.95,3.06 -2.87,1.74 -2.70,0.71 -2.54,-0.32 -2.46,-0.62 -2.39,-0.92 -2.24,-1.19 -2.10,-1.46 -1.89,-1.69 -1.69,-1.92 -1.43,-2.10 -1.18,-2.27 -0.89,-2.38 -0.60,-2.49 -0.29,-2.52 0.01,-2.56 0.31,-2.52 0.62,-2.48 0.91,-2.37 1.20,-2.26 1.45,-2.08 1.71,-1.91 1.91,-1.67 2.11,-1.44 2.26,-1.17 2.40,-0.89 2.47,-0.59 2.54,-0.29 2.54,0.01 2.54,0.32 2.54,0.32 L 2.54,0.32 Z"/></g><g stroke-linecap="round"><g transform="translate(186.0418930053711 166.9639129638672) rotate(0 -74.09097802174425 -48.487640380859375)"><path d="M0 0 C-21.25 -13.87, -102.82 -67.06, -127.52 -83.22 C-152.22 -99.39, -144.74 -94.68, -148.18 -96.98 M0 0 C-21.25 -13.87, -102.82 -67.06, -127.52 -83.22 C-152.22 -99.39, -144.74 -94.68, -148.18 -96.98" stroke="#087f5b" stroke-width="1" fill="none"/></g><g transform="translate(186.0418930053711 166.9639129638672) rotate(0 -74.09097802174425 -48.487640380859375)"><path d="M-136.21 -93.72 C-139.65 -94.66, -143.09 -95.59, -148.18 -96.98 M-136.21 -93.72 C-140.07 -94.77, -143.94 -95.82, -148.18 -96.98" stroke="#087f5b" stroke-width="1" fill="none"/></g><g transform="translate(186.0418930053711 166.9639129638672) rotate(0 -74.09097802174425 -48.487640380859375)"><path d="M-141.1 -86.79 C-143.13 -89.71, -145.17 -92.64, -148.18 -96.98 M-141.1 -86.79 C-143.39 -90.08, -145.67 -93.37, -148.18 -96.98" stroke="#087f5b" stroke-width="1" fill="none"/></g></g><mask/><g transform="translate(38.207115173339844 69.84986877441406) rotate(0 0.36865234375 0.580413818359375)" stroke="none"><path fill="#000000" d="M 2.21,0.88 Q 2.21,0.88 2.12,1.17 2.04,1.46 1.55,0.15 1.06,-1.15 -0.16,-0.92 -1.39,-0.69 -0.49,0.87 0.39,2.45 1.88,1.73 3.38,1.01 2.98,-0.17 2.58,-1.36 1.04,-0.10 -0.48,1.15 0.21,2.11 0.92,3.07 1.70,2.25 2.48,1.43 2.31,0.24 2.15,-0.95 0.55,-1.12 -1.05,-1.29 -1.61,0.16 -2.18,1.62 -1.06,2.80 0.05,3.99 1.01,2.76 1.98,1.54 1.84,0.23 1.70,-1.07 0.05,-1.08 -1.59,-1.09 -2.17,-0.15 -2.76,0.78 -1.63,1.74 -0.51,2.70 0.54,2.59 1.60,2.48 1.93,1.25 2.26,0.01 1.24,-1.01 0.22,-2.05 0.72,-2.67 1.21,-3.30 1.64,-3.15 2.06,-3.00 2.43,-2.75 2.81,-2.50 3.11,-2.18 3.42,-1.85 3.64,-1.45 3.85,-1.06 3.97,-0.63 4.09,-0.20 4.10,0.24 4.11,0.69 4.01,1.13 3.92,1.57 3.72,1.97 3.52,2.37 3.23,2.71 2.94,3.05 2.57,3.32 2.21,3.58 1.80,3.75 1.38,3.92 0.94,3.98 0.49,4.05 0.05,4.00 -0.39,3.96 -1.55,3.14 -2.72,2.33 -2.96,1.78 -3.19,1.22 -3.24,0.62 -3.29,0.02 -3.15,-0.55 -3.00,-1.14 -2.68,-1.64 -2.35,-2.15 -1.88,-2.53 -1.41,-2.90 -0.85,-3.11 -0.28,-3.32 0.31,-3.33 0.91,-3.35 1.49,-3.17 2.06,-3.00 2.55,-2.64 3.04,-2.29 3.39,-1.80 3.74,-1.31 3.92,-0.74 4.09,-0.16 4.08,0.43 4.06,1.03 3.85,1.59 3.64,2.16 3.27,2.63 2.89,3.10 2.38,3.42 1.88,3.75 1.29,3.89 0.71,4.04 0.11,3.99 -0.48,3.94 -1.04,3.70 -1.59,3.46 -2.04,3.06 -2.48,2.66 -2.78,2.13 -3.08,1.61 -3.19,1.02 -3.30,0.42 -3.22,-0.16 -3.14,-0.76 -2.87,-1.30 -2.60,-1.84 -2.18,-2.26 -1.75,-2.69 -1.21,-2.95 -0.67,-3.22 -0.08,-3.30 0.51,-3.38 1.10,-3.27 1.69,-3.16 2.22,-2.86 2.74,-2.56 1.98,-2.93 1.21,-3.30 1.64,-3.15 2.06,-3.00 2.43,-2.75 2.81,-2.50 3.11,-2.18 3.42,-1.85 3.64,-1.45 3.85,-1.06 3.97,-0.63 4.09,-0.20 4.10,0.24 4.11,0.69 4.01,1.13 3.92,1.57 3.72,1.97 3.52,2.37 3.23,2.71 2.94,3.05 2.57,3.32 2.21,3.58 1.80,3.75 1.38,3.92 0.94,3.98 0.49,4.05 0.05,4.00 -0.39,3.96 -0.09,4.72 0.20,5.47 -0.86,5.23 -1.94,5.00 -3.10,4.12 -4.25,3.24 -4.59,1.95 -4.92,0.66 -4.56,-0.50 -4.20,-1.66 -3.19,-2.67 -2.19,-3.68 -0.87,-4.02 0.44,-4.36 1.58,-3.97 2.72,-3.59 3.52,-2.07 4.32,-0.55 4.27,0.64 4.22,1.84 3.30,3.26 2.38,4.68 0.83,4.99 -0.70,5.31 -1.77,4.73 -2.83,4.16 -3.50,3.21 -4.16,2.27 -4.10,1.20 -4.03,0.12 -2.48,-1.29 -0.94,-2.71 0.15,-2.65 1.24,-2.59 2.59,-1.31 3.95,-0.03 3.82,1.36 3.69,2.76 2.14,3.74 0.60,4.72 -0.45,4.51 -1.50,4.30 -2.30,3.51 -3.11,2.71 -3.38,1.23 -3.66,-0.25 -2.72,-1.40 -1.79,-2.55 -0.40,-2.80 0.99,-3.05 2.08,-2.62 3.17,-2.19 3.80,-0.81 4.44,0.57 3.72,2.10 3.01,3.63 1.61,3.68 0.20,3.74 -0.66,3.08 -1.54,2.43 -1.81,1.36 -2.09,0.29 -1.48,-0.75 -0.86,-1.79 0.23,-2.07 1.34,-2.36 2.32,-1.76 3.30,-1.16 3.33,0.30 3.35,1.78 2.11,2.68 0.88,3.57 -0.64,3.04 -2.17,2.51 -2.37,1.18 -2.56,-0.14 -2.39,-0.51 -2.21,-0.88 -2.07,-1.13 -1.93,-1.39 -1.74,-1.60 -1.54,-1.81 -1.30,-1.97 -1.07,-2.13 -0.79,-2.22 -0.52,-2.32 -0.24,-2.35 0.04,-2.38 0.32,-2.34 0.61,-2.30 0.87,-2.19 1.14,-2.09 1.38,-1.92 1.61,-1.75 1.80,-1.53 1.98,-1.31 2.11,-1.06 2.24,-0.80 2.30,-0.52 2.37,-0.24 2.36,0.04 2.36,0.33 2.28,0.60 2.21,0.88 2.21,0.88 L 2.21,0.88 Z"/></g><g stroke-linecap="round"><g transform="translate(180.09394073486328 168.10508728027344) rotate(0 -35.910369873046875 57.38861083984375)"><path d="M0 0 C-10.21 16.51, -49.32 79.94, -61.29 99.07 C-73.26 118.2, -70.07 112.16, -71.82 114.78 M0 0 C-10.21 16.51, -49.32 79.94, -61.29 99.07 C-73.26 118.2, -70.07 112.16, -71.82 114.78" stroke="#364fc7" stroke-width="1" fill="none"/></g><g transform="translate(180.09394073486328 168.10508728027344) rotate(0 -35.910369873046875 57.38861083984375)"><path d="M-68.55 105.91 C-69.54 108.59, -70.53 111.28, -71.82 114.78 M-68.55 105.91 C-69.85 109.43, -71.15 112.95, -71.82 114.78" stroke="#364fc7" stroke-width="1" fill="none"/></g><g transform="translate(180.09394073486328 168.10508728027344) rotate(0 -35.910369873046875 57.38861083984375)"><path d="M-63.62 110.08 C-66.1 111.5, -68.58 112.92, -71.82 114.78 M-63.62 110.08 C-66.88 111.95, -70.13 113.81, -71.82 114.78" stroke="#364fc7" stroke-width="1" fill="none"/></g></g><mask/></svg>