<svg version="1.1" xmlns="http://www.w3.org/2000/svg" viewBox="0 0 527.0850515463917 393.1210021972656" width="527.0850515463917" height="393.1210021972656">
  <!-- svg-source:excalidraw -->
  
  <defs>
    <style class="style-fonts">
      @font-face {
        font-family: "Virgil";
        src: url("https://excalidraw.com/Virgil.woff2");
      }
      @font-face {
        font-family: "Cascadia";
        src: url("https://excalidraw.com/Cascadia.woff2");
      }
    </style>
  </defs>
  <g stroke-linecap="round" transform="translate(111.15898085132085 10) rotate(0 31.39404296875 17.649948120117188)"><path d="M8.22 -1.83 L55.15 -1.6 L61.15 1.79 L63.9 9.68 L63.53 28.23 L62.32 34.27 L52.76 33.57 L9.97 34.74 L2.76 32.32 L1.42 25.75 L1.38 6.23 L0.81 4.05 L10.22 1.57" stroke="none" stroke-width="0" fill="#fff"/><path d="M8.82 0 M8.82 0 C23.78 1.46, 38.53 1.09, 53.96 0 M8.82 0 C23.56 1.2, 36.26 0.42, 53.96 0 M53.96 0 C61.74 -0.62, 64.07 2.25, 62.79 8.82 M53.96 0 C58.02 -0.99, 61.6 3.27, 62.79 8.82 M62.79 8.82 C61.81 15.9, 63.5 18.93, 62.79 26.47 M62.79 8.82 C63.3 14.14, 62.69 20.79, 62.79 26.47 M62.79 26.47 C63.32 31.24, 59.58 33.64, 53.96 35.3 M62.79 26.47 C62.02 32.03, 59.39 33.84, 53.96 35.3 M53.96 35.3 C38.86 36.84, 22.56 36.55, 8.82 35.3 M53.96 35.3 C42.26 34.97, 32.17 35.19, 8.82 35.3 M8.82 35.3 C1.9 34.55, -0.32 33, 0 26.47 M8.82 35.3 C2.8 35.86, 0.01 32.65, 0 26.47 M0 26.47 C1.17 20.7, 0.13 17.67, 0 8.82 M0 26.47 C-0.75 20.37, 0.46 13.47, 0 8.82 M0 8.82 C-1.65 3.58, 2.1 1.14, 8.82 0 M0 8.82 C-2.08 1.74, 2.49 -1.46, 8.82 0" stroke="#fff" stroke-width="1" fill="none"/></g><g stroke-linecap="round" transform="translate(282.84623671069585 24.797622680664062) rotate(0 10.631103515625 10.609130859375)"><path d="M6 -0.16 L20.92 1.16 L22.95 4.77 L21.25 20.18 L15.46 19.69 L2.4 21.6 L-1.93 16.07 L2.23 2.36 L6.58 -0.69" stroke="none" stroke-width="0" fill="#fff"/><path d="M5.3 0 M5.3 0 C7.81 0.16, 9.65 0.57, 15.96 0 M5.3 0 C7.7 0.15, 10.8 0.26, 15.96 0 M15.96 0 C20.5 -1.44, 20.87 1.92, 21.26 5.3 M15.96 0 C20.1 -1.29, 20.96 -0.14, 21.26 5.3 M21.26 5.3 C20.57 8.71, 21.55 11.28, 21.26 15.91 M21.26 5.3 C21.63 8.64, 21.84 12.65, 21.26 15.91 M21.26 15.91 C19.73 18.71, 19.64 20.91, 15.96 21.22 M21.26 15.91 C20.07 18.58, 19.12 21.95, 15.96 21.22 M15.96 21.22 C12.96 20.93, 9.26 20.48, 5.3 21.22 M15.96 21.22 C12.35 21.72, 8.35 20.79, 5.3 21.22 M5.3 21.22 C0.15 23.11, 1.13 21.43, 0 15.91 M5.3 21.22 C-0.13 21.95, -0.96 20.76, 0 15.91 M0 15.91 C-0.62 13.28, 0.69 11.74, 0 5.3 M0 15.91 C-0.33 12.47, 0.48 9.57, 0 5.3 M0 5.3 C0.77 2.44, 1.94 -1.7, 5.3 0 M0 5.3 C-1.06 3.17, 2.39 0.78, 5.3 0" stroke="#fff" stroke-width="1" fill="none"/></g><g stroke-linecap="round" transform="translate(397.26957655444585 31.489242553710938) rotate(0 9.373046875 6.2329254150390625)"><path d="M1.96 1.9 L18.18 -0.76 L17.22 11.83 L0.47 10.65 L-0.56 1.43 L3.76 -0.12" stroke="none" stroke-width="0" fill="#fff"/><path d="M3.12 0 M3.12 0 C6.83 -0.53, 10.36 0.76, 15.63 0 M3.12 0 C6.77 0.07, 8.76 -0.56, 15.63 0 M15.63 0 C19.6 1.13, 20.72 -0.61, 18.75 3.12 M15.63 0 C18.44 -0.96, 20.05 -1.05, 18.75 3.12 M18.75 3.12 C18.49 5.03, 18.89 6.25, 18.75 9.35 M18.75 3.12 C18.68 5.52, 18.89 7.43, 18.75 9.35 M18.75 9.35 C19.42 11.6, 16.01 11.55, 15.63 12.47 M18.75 9.35 C20.15 12.04, 18.49 12.19, 15.63 12.47 M15.63 12.47 C11.41 11.49, 7.78 12.04, 3.12 12.47 M15.63 12.47 C11.45 12.43, 7.59 11.98, 3.12 12.47 M3.12 12.47 C0.3 11.18, -0.68 9.86, 0 9.35 M3.12 12.47 C-0.73 10.29, 1.58 10.42, 0 9.35 M0 9.35 C0.46 8.17, 0.16 6.36, 0 3.12 M0 9.35 C0.11 8.11, -0.28 6.7, 0 3.12 M0 3.12 C-1.95 0.77, 1.42 -1.71, 3.12 0 M0 3.12 C0.55 0.86, 0.92 -0.57, 3.12 0" stroke="#fff" stroke-width="1" fill="none"/></g></svg>